{"title":"Batman V Superman Dawn of Jusitce 2016 Extended Cut Ultimate Edi","uid":15080331,"size":2129629508,"categoryP":"video","categoryS":"movies","magnet":"?xt=urn:btih:da33ad084304541b12f5fe039b81102efcb82761&amp;dn=Batman+V+Superman+Dawn+of+Jusitce+2016+Extended+Cut+Ultimate+Edi&amp;tr=udp%3A%2F%2Ftracker.leechers-paradise.org%3A6969&amp;tr=udp%3A%2F%2Fzer0day.ch%3A1337&amp;tr=udp%3A%2F%2Fopen.demonii.com%3A1337&amp;tr=udp%3A%2F%2Ftracker.coppersurfer.tk%3A6969&amp;tr=udp%3A%2F%2Fexodus.desync.com%3A6969","seeders":8,"leechers":7,"uploader":"xxxlavalxxx","files":4,"time":1466857983,"description":"http://extraimago.com/image/a5S7\r\n \nhttp://www.imdb.com/title/tt2975590/\r\n\r\n\r\nFearing that the actions of Superman are left unchecked, Batman takes on the Man of Steel, while the world wrestles with what kind of a hero it really needs.\r\n\r\nDirector: Zack Snyder\r\nWriters: Chris Terrio, David S. Goyer\r\nStars: Ben Affleck, Henry Cavill, Amy Adams \r\nGenres: Action | Adventure | Fantasy | Sci-Fi\r\nCountry: USA\r\nLanguage: English\r\n\r\n\r\nFormat                      : Matroska\r\nFile size                   : 1.95 GiB\r\nDuration                    : 2h 54mn\r\nOverall bit rate            : 1 601 Kbps\r\n\r\nVideo\r\nID                          : 1\r\nFormat                      : AVC\r\nFormat/Info                 : Advanced Video Codec\r\nFormat profile              :   \r\nFormat settings, CABAC      : Yes\r\nFormat settings, ReFrames   : 3 frames\r\nCodec ID                    : V_MPEG4/ISO/AVC\r\nDuration                    : 2h 54mn\r\nBit rate                    : 1 343 Kbps\r\nWidth                       : 720 pixels\r\nHeight                      : 304 pixels\r\nDisplay aspect ratio        : 2.35:1\r\nFrame rate mode             : Constant\r\nFrame rate                  : 23.976 (24000/1001) fps\r\nColor space                 : YUV\r\nChroma subsampling          : 4:2:0\r\nBit depth                   : 8 bits\r\nScan type                   : Progressive\r\nBits/(Pixel*Frame)          : 0.256\r\nStream size                 : 1.64 GiB (84%)\r\n\r\nAudio\r\nID                          : 2\r\nFormat                      : AC-3\r\nFormat/Info                 : Audio Coding 3\r\nMode extension              : CM (complete main)\r\nFormat settings, Endianness : Big\r\nCodec ID                    : A_AC3\r\nDuration                    : 2h 54mn\r\nBit rate mode               : Constant\r\nBit rate                    : 256 Kbps\r\nChannel(s)                  : 2 channels\r\nChannel positions           : Front: L R\r\nSampling rate               : 48.0 KHz\r\nFrame rate                  : 31.250 fps (1536 spf)\r\nCompression mode            : Lossy\r\nStream size                 : 320 MiB (16%)\r\nDefault                     : Yes\r\nForced                      : No\r\n\r\n \nhttp://extraimago.com/image/a5SQ \nhttp://extraimago.com/image/a5SR \nhttp://extraimago.com/image/a5Sm \nhttp://extraimago.com/image/a5Si \nhttp://extraimago.com/image/a5Sl \nhttp://extraimago.com/image/a5SI \nhttp://extraimago.com/image/a5Sd \nhttp://extraimago.com/image/a5Sh \nhttp://extraimago.com/image/a5Sb \nhttp://extraimago.com/image/a5S3","torrent":{"xt":"urn:btih:da33ad084304541b12f5fe039b81102efcb82761","amp;dn":"Batman+V+Superman+Dawn+of+Jusitce+2016+Extended+Cut+Ultimate+Edi","amp;tr":["udp%3A%2F%2Ftracker.leechers-paradise.org%3A6969","udp%3A%2F%2Fzer0day.ch%3A1337","udp%3A%2F%2Fopen.demonii.com%3A1337","udp%3A%2F%2Ftracker.coppersurfer.tk%3A6969","udp%3A%2F%2Fexodus.desync.com%3A6969"],"infoHash":"da33ad084304541b12f5fe039b81102efcb82761","infoHashBuffer":{"type":"Buffer","data":[218,51,173,8,67,4,84,27,18,245,254,3,155,129,16,46,252,184,39,97]},"announce":[],"urlList":[]}}